<?xml version="1.0" encoding="UTF-8"?>
<svg version="1.1" xmlns="http://www.w3.org/2000/svg" width="1587" height="2245">
<path d="M0 0 C523.71 0 1047.42 0 1587 0 C1587 740.85 1587 1481.7 1587 2245 C1063.29 2245 539.58 2245 0 2245 C0 1504.15 0 763.3 0 0 Z " fill="#FEFEFE" transform="translate(0,0)"/>
<path d="M0 0 C7.50583356 5.12222425 11.51249645 11.27265705 14 20 C15.08692761 31.26107563 14.01358547 41.31254043 6.875 50.375 C1.42708437 56.10531298 -6.04211274 59.65487264 -13.91796875 60.203125 C-24.74167371 60.35830357 -33.03146552 58.72495482 -41 51 C-48.72372279 41.35514819 -49.1054301 29.84025893 -48 18 C-47.20989279 14.49892614 -46.04507607 11.93371032 -44 9 C-43.2884375 7.94425781 -43.2884375 7.94425781 -42.5625 6.8671875 C-32.47025789 -6.28183948 -14.06171893 -7.66183403 0 0 Z " fill="#060606" transform="translate(798,1171)"/>
<path d="M0 0 C7.50583356 5.12222425 11.51249645 11.27265705 14 20 C15.08692761 31.26107563 14.01358547 41.31254043 6.875 50.375 C1.42708437 56.10531298 -6.04211274 59.65487264 -13.91796875 60.203125 C-24.74167371 60.35830357 -33.03146552 58.72495482 -41 51 C-48.72372279 41.35514819 -49.1054301 29.84025893 -48 18 C-47.20989279 14.49892614 -46.04507607 11.93371032 -44 9 C-43.2884375 7.94425781 -43.2884375 7.94425781 -42.5625 6.8671875 C-32.47025789 -6.28183948 -14.06171893 -7.66183403 0 0 Z " fill="#060606" transform="translate(679,1018)"/>
<path d="M0 0 C5.83494851 -0.04966889 11.66977222 -0.08584653 17.50488281 -0.10986328 C19.48732651 -0.11988215 21.46975559 -0.133501 23.45214844 -0.15087891 C26.31188584 -0.17530882 29.17142679 -0.1865245 32.03125 -0.1953125 C32.90865845 -0.20563507 33.78606689 -0.21595764 34.69006348 -0.22659302 C43.03361897 -0.22809301 50.04315025 1.22569135 57 6 C60.25117214 9.67067823 60.46547975 13.12785699 60.28515625 17.85546875 C59.73674838 21.97979641 57.77089913 24.18091968 55 27.125 C50.63990764 29.85005772 45.9759823 30.84968535 41 32 C41.49628906 32.268125 41.99257813 32.53625 42.50390625 32.8125 C51.98765605 38.28320197 56.57455207 45.46161923 61.2265625 55.2421875 C63.22778764 58.35422483 64.48678981 59.0527522 68 60 C68 60.66 68 61.32 68 62 C57.77 62 47.54 62 37 62 C37 61.34 37 60.68 37 60 C38.32 59.34 39.64 58.68 41 58 C41.86207556 50.48762723 40.08275588 46.62413383 35.921875 40.3828125 C32.96021008 36.71082957 30.5625686 35.02830168 26 34 C26.10952116 37.79228144 26.24023241 41.5835384 26.375 45.375 C26.4059375 46.45523437 26.436875 47.53546875 26.46875 48.6484375 C26.50742187 49.6796875 26.54609375 50.7109375 26.5859375 51.7734375 C26.63306885 53.20308838 26.63306885 53.20308838 26.68115234 54.66162109 C26.78555796 57.18895176 26.78555796 57.18895176 29 59 C30.98821313 59.39764263 32.98944339 59.73775349 35 60 C35 60.66 35 61.32 35 62 C23.45 62 11.9 62 0 62 C0 61.34 0 60.68 0 60 C1.134375 59.71125 2.26875 59.4225 3.4375 59.125 C4.613125 58.75375 5.78875 58.3825 7 58 C8.23468725 55.53062549 8.13350873 53.88472841 8.14526367 51.12304688 C8.15164352 50.10859497 8.15802338 49.09414307 8.16459656 48.0489502 C8.16570938 46.94998413 8.1668222 45.85101807 8.16796875 44.71875 C8.17129715 43.59432495 8.17462555 42.4698999 8.17805481 41.31140137 C8.18312411 38.93074961 8.18546313 36.55009074 8.18530273 34.16943359 C8.18749091 30.51518137 8.20565146 26.86123008 8.22460938 23.20703125 C8.22754287 20.89843854 8.22952796 18.58984438 8.23046875 16.28125 C8.24124702 14.6328009 8.24124702 14.6328009 8.25224304 12.9510498 C8.24916641 11.9365979 8.24608978 10.922146 8.24291992 9.87695312 C8.24434494 8.98141724 8.24576996 8.08588135 8.24723816 7.16320801 C8.20306674 4.78824075 8.20306674 4.78824075 6 3 C4.01178687 2.60235737 2.01055661 2.26224651 0 2 C0 1.34 0 0.68 0 0 Z " fill="#050505" transform="translate(815,1168)"/>
<path d="M0 0 C10.56 0 21.12 0 32 0 C32 0.66 32 1.32 32 2 C30.68 2 29.36 2 28 2 C32.19508027 15.63401089 38.70694034 28.23953271 45 41 C47.70782982 36.0210871 50.36913036 31.01996349 53 26 C53.56589844 24.93265625 54.13179687 23.8653125 54.71484375 22.765625 C57.46175012 17.44625455 57.46175012 17.44625455 57.5 11.625 C57.005 10.75875 56.51 9.8925 56 9 C55.608125 8.0925 55.21625 7.185 54.8125 6.25 C52.30962683 3.14298503 49.82057393 2.79294931 46 2 C46 1.34 46 0.68 46 0 C57.55 0 69.1 0 81 0 C81 0.66 81 1.32 81 2 C79.02 2.33 77.04 2.66 75 3 C74.57377269 8.24969975 76.01588133 11.96696342 78.28125 16.5859375 C78.61419067 17.28772125 78.94713135 17.989505 79.29016113 18.71255493 C80.34933314 20.93870864 81.42433671 23.15677534 82.5 25.375 C83.22371741 26.88881606 83.94638529 28.40313435 84.66796875 29.91796875 C86.43321571 33.61790363 88.21269515 37.31067322 90 41 C94.05873862 36.01537556 96.14115964 30.12324753 98.625 24.25 C99.37910156 22.5175 99.37910156 22.5175 100.1484375 20.75 C102.69134547 14.76186188 104.66280171 9.51916691 105 3 C103.35 2.67 101.7 2.34 100 2 C100 1.34 100 0.68 100 0 C106.93 0 113.86 0 121 0 C121 0.66 121 1.32 121 2 C119.57026321 2.91911651 118.13992117 3.83730514 116.70654297 4.75073242 C111.29031585 8.71565863 107.67608685 14.70264338 104.5 20.5 C104.09346191 21.23395996 103.68692383 21.96791992 103.26806641 22.72412109 C96.42532014 35.42702659 90.80734659 48.80194271 85 62 C83.68 62 82.36 62 81 62 C80.54149658 61.01717041 80.08299316 60.03434082 79.6105957 59.02172852 C77.88991761 55.3356191 76.1649347 51.65153734 74.4387207 47.96801758 C73.69570377 46.38099269 72.95381689 44.79343818 72.21313477 43.20532227 C68.38075217 34.99012047 64.56458484 26.84172267 60 19 C59.64808594 19.73412109 59.29617188 20.46824219 58.93359375 21.22460938 C52.38987904 34.86731486 45.84140202 48.50321595 39 62 C38.01 62 37.02 62 36 62 C34.10037363 58.08516277 32.20567605 54.16796041 30.3125 50.25 C30.02432404 49.65452362 29.73614807 49.05904724 29.4392395 48.44552612 C26.01583324 41.3665642 22.64315014 34.26898056 19.3828125 27.11328125 C19.09188217 26.47693756 18.80095184 25.84059387 18.50120544 25.18496704 C17.09500412 22.10815681 15.69818083 19.02802172 14.31567383 15.94042969 C13.8080249 14.82700195 13.30037598 13.71357422 12.77734375 12.56640625 C12.33640381 11.58615479 11.89546387 10.60590332 11.44116211 9.59594727 C9.91327018 6.84377465 8.40992627 5.01740369 6 3 C2.85518209 2.19684346 2.85518209 2.19684346 0 2 C0 1.34 0 0.68 0 0 Z " fill="#040404" transform="translate(631,1168)"/>
<path d="M0 0 C5.77997948 -0.09967465 11.55944688 -0.17184583 17.34008789 -0.21972656 C19.30209074 -0.23970918 21.26403505 -0.26690484 23.22583008 -0.30175781 C47.19495831 -0.71659638 47.19495831 -0.71659638 56 6.4375 C56.66 7.283125 57.32 8.12875 58 9 C58.598125 9.70125 59.19625 10.4025 59.8125 11.125 C61.96604246 16.33883964 62.18003746 22.07661501 60.05078125 27.3515625 C56.37046348 33.55121452 51.76742319 37.30903777 44.890625 39.47265625 C38.67437134 40.60670253 32.29144816 40.20842834 26 40 C26.11391632 42.60508636 26.24065548 45.20845546 26.375 47.8125 C26.4059375 48.55048828 26.436875 49.28847656 26.46875 50.04882812 C26.67346148 53.81893115 26.86433827 55.79650741 29 59 C32.56769552 59.73606499 32.56769552 59.73606499 36 60 C36 60.66 36 61.32 36 62 C24.12 62 12.24 62 0 62 C0 61.34 0 60.68 0 60 C2.64 59.67 5.28 59.34 8 59 C8 40.85 8 22.7 8 4 C5.36 3.34 2.72 2.68 0 2 C0 1.34 0 0.68 0 0 Z " fill="#070707" transform="translate(887,1015)"/>
<path d="M0 0 C11.55 0 23.1 0 35 0 C35 0.66 35 1.32 35 2 C33.865625 2.309375 32.73125 2.61875 31.5625 2.9375 C28.21224901 3.62924531 28.21224901 3.62924531 27 5 C26.91251793 6.92667507 26.89302666 8.85651861 26.90234375 10.78515625 C26.90717773 12.53989258 26.90717773 12.53989258 26.91210938 14.33007812 C26.92048828 15.56177734 26.92886719 16.79347656 26.9375 18.0625 C26.94201172 19.29806641 26.94652344 20.53363281 26.95117188 21.80664062 C26.96300392 24.87114117 26.97948827 27.93554721 27 31 C32.18813163 25.95936779 37.13482717 20.94667884 41.4375 15.125 C41.85708984 14.57070312 42.27667969 14.01640625 42.70898438 13.4453125 C46.65486893 8.71789931 46.65486893 8.71789931 48 3 C46.68 2.67 45.36 2.34 44 2 C44 1.34 44 0.68 44 0 C51.26 0 58.52 0 66 0 C66 0.66 66 1.32 66 2 C64.1746875 2.6496875 64.1746875 2.6496875 62.3125 3.3125 C52.7201382 7.56228055 44.37088511 15.80886201 38 24 C38.70125 24.38929687 39.4025 24.77859375 40.125 25.1796875 C51.22883959 31.72733204 57.02029025 40.2939447 62.76806641 51.55444336 C64.97601114 55.74423031 66.67388063 57.7649646 71 60 C71 60.66 71 61.32 71 62 C60.77 62 50.54 62 40 62 C40 61.34 40 60.68 40 60 C42.475 59.505 42.475 59.505 45 59 C46.11349678 48.08773155 41.24265783 36.73972096 35 28 C30.55659497 31.96303692 27.52751727 36.04720741 26.73071289 42.01782227 C26.63555018 44.10373941 26.63882175 46.16267645 26.6875 48.25 C26.68427734 48.95640625 26.68105469 49.6628125 26.67773438 50.390625 C26.71659851 54.12158222 26.88303927 55.82455891 29 59 C31.56282742 59.72965366 31.56282742 59.72965366 34 60 C34 60.66 34 61.32 34 62 C22.78 62 11.56 62 0 62 C0 61.34 0 60.68 0 60 C2.64 59.67 5.28 59.34 8 59 C8 40.85 8 22.7 8 4 C5.36 3.34 2.72 2.68 0 2 C0 1.34 0 0.68 0 0 Z " fill="#060606" transform="translate(885,1168)"/>
<path d="M0 0 C18.15 0 36.3 0 55 0 C56.14654482 2.29308963 56.19729117 3.79909656 56.31640625 6.3515625 C56.35830078 7.20234375 56.40019531 8.053125 56.44335938 8.9296875 C56.48267578 9.81914063 56.52199219 10.70859375 56.5625 11.625 C56.60568359 12.5221875 56.64886719 13.419375 56.69335938 14.34375 C56.79956861 16.56234283 56.90161194 18.7810488 57 21 C56.34 21 55.68 21 55 21 C54.75765625 20.41992188 54.5153125 19.83984375 54.265625 19.2421875 C50.6853933 10.42719241 50.6853933 10.42719241 43.875 4.125 C39.46721964 2.52217078 34.60982006 2.17796915 30 3 C27.65540578 4.718657 27.06023705 5.64561838 26.56762695 8.54370117 C26.54144287 9.53345947 26.51525879 10.52321777 26.48828125 11.54296875 C26.45283203 12.61611328 26.41738281 13.68925781 26.38085938 14.79492188 C26.35830078 15.91447266 26.33574219 17.03402344 26.3125 18.1875 C26.27833984 19.31865234 26.24417969 20.44980469 26.20898438 21.61523438 C26.12643686 24.4100574 26.05730818 27.20456398 26 30 C27.44194321 29.72160129 28.88164621 29.43158376 30.3203125 29.13671875 C31.12227051 28.97647217 31.92422852 28.81622559 32.75048828 28.65112305 C36.25006015 27.63816904 37.83361672 25.86727198 40 23 C41.18135213 20.69468937 42.09243043 18.4361078 43 16 C43.66 16 44.32 16 45 16 C45 25.9 45 35.8 45 46 C44.01 45.67 43.02 45.34 42 45 C41.566875 43.906875 41.13375 42.81375 40.6875 41.6875 C39.06736911 37.5993977 36.97915189 35.98957594 33 34 C30.67347497 33.62206239 28.33999618 33.28279575 26 33 C26.1100917 36.41731792 26.24067061 39.83355574 26.375 43.25 C26.4059375 44.21808594 26.436875 45.18617187 26.46875 46.18359375 C26.50742187 47.11816406 26.54609375 48.05273438 26.5859375 49.015625 C26.63306885 50.30388184 26.63306885 50.30388184 26.68115234 51.61816406 C27.02210185 54.16510387 27.63774894 55.82983905 29 58 C33.26229522 60.13114761 38.83503802 59.67747109 43.296875 58.28125 C51.11404841 54.63715412 53.85667121 48.67440381 57 41 C57.66 41 58.32 41 59 41 C58.86142159 44.12536637 58.71290431 47.25018217 58.5625 50.375 C58.52318359 51.26445313 58.48386719 52.15390625 58.44335938 53.0703125 C58.38051758 54.34648438 58.38051758 54.34648438 58.31640625 55.6484375 C58.27974854 56.43395996 58.24309082 57.21948242 58.20532227 58.02880859 C58 60 58 60 57 62 C38.19 62 19.38 62 0 62 C0 61.34 0 60.68 0 60 C2.64 59.67 5.28 59.34 8 59 C8 40.85 8 22.7 8 4 C5.36 3.34 2.72 2.68 0 2 C0 1.34 0 0.68 0 0 Z " fill="#070707" transform="translate(825,1015)"/>
<path d="M0 0 C21.39840276 -2.82383614 21.39840276 -2.82383614 28.37988281 1.46044922 C32.58720845 5.47084952 35.48420338 10.35220387 38.390625 15.34667969 C41.18138465 19.94770758 44.50163409 24.154018 47.75 28.4375 C48.9154887 30.01656441 50.07725821 31.59838428 51.234375 33.18359375 C51.72131836 33.84931396 52.20826172 34.51503418 52.70996094 35.20092773 C53.84017234 36.77710635 54.92415088 38.38622631 56 40 C56 28.12 56 16.24 56 4 C53.36 3.34 50.72 2.68 48 2 C48 1.34 48 0.68 48 0 C54.93 0 61.86 0 69 0 C69 0.66 69 1.32 69 2 C67.329375 2.185625 67.329375 2.185625 65.625 2.375 C61.96896323 2.6465813 61.96896323 2.6465813 60 5 C59.6682747 7.50689829 59.6682747 7.50689829 59.68115234 10.45947266 C59.66128265 11.60050446 59.64141296 12.74153625 59.62094116 13.91714478 C59.60361435 15.77186905 59.60361435 15.77186905 59.5859375 17.6640625 C59.56657135 18.92640717 59.5472052 20.18875183 59.5272522 21.48934937 C59.47750955 24.84634212 59.43627428 28.20322315 59.39910889 31.56036377 C59.35911153 34.98565664 59.30799981 38.41078146 59.2578125 41.8359375 C59.1615994 48.55718381 59.07659418 55.27850305 59 62 C51.63617777 62.48012465 51.63617777 62.48012465 48.84521484 60.3737793 C48.30590332 59.61492432 47.7665918 58.85606934 47.2109375 58.07421875 C46.58646729 57.22400146 45.96199707 56.37378418 45.31860352 55.49780273 C44.67721436 54.57040283 44.0358252 53.64300293 43.375 52.6875 C42.68913818 51.74140869 42.00327637 50.79531738 41.29663086 49.82055664 C39.87554735 47.85734457 38.46505058 45.88642816 37.06494141 43.90820312 C34.53202817 40.34092216 31.93231145 36.82656104 29.32470703 33.3137207 C27.66726011 31.07876214 26.02154443 28.83569771 24.37890625 26.58984375 C20.29856437 21.02551214 16.14754 15.5143231 12 10 C11.92411307 16.656827 11.87146939 23.31354303 11.83520508 29.97070312 C11.82009196 32.23669605 11.79960087 34.5026596 11.77368164 36.76855469 C11.73740938 40.02025589 11.7202991 43.27157136 11.70703125 46.5234375 C11.69154739 47.54118256 11.67606354 48.55892761 11.66011047 49.60751343 C11.65988388 50.54833771 11.65965729 51.48916199 11.65942383 52.45849609 C11.65276199 53.28900482 11.64610016 54.11951355 11.63923645 54.97518921 C11.81781441 55.97747055 11.81781441 55.97747055 12 57 C15.18762365 59.12508244 17.26512223 59.5020163 21 60 C21 60.66 21 61.32 21 62 C14.07 62 7.14 62 0 62 C0 61.34 0 60.68 0 60 C1.134375 59.71125 2.26875 59.4225 3.4375 59.125 C4.613125 58.75375 5.78875 58.3825 7 58 C8.23468725 55.53062549 8.13350873 53.88472841 8.14526367 51.12304688 C8.15164352 50.10859497 8.15802338 49.09414307 8.16459656 48.0489502 C8.16570938 46.94998413 8.1668222 45.85101807 8.16796875 44.71875 C8.17129715 43.59432495 8.17462555 42.4698999 8.17805481 41.31140137 C8.18312411 38.93074961 8.18546313 36.55009074 8.18530273 34.16943359 C8.18749091 30.51518137 8.20565146 26.86123008 8.22460938 23.20703125 C8.22754287 20.89843854 8.22952796 18.58984438 8.23046875 16.28125 C8.24124702 14.6328009 8.24124702 14.6328009 8.25224304 12.9510498 C8.24916641 11.9365979 8.24608978 10.922146 8.24291992 9.87695312 C8.24434494 8.98141724 8.24576996 8.08588135 8.24723816 7.16320801 C8.20306674 4.78824075 8.20306674 4.78824075 6 3 C4.01178687 2.60235737 2.01055661 2.26224651 0 2 C0 1.34 0 0.68 0 0 Z " fill="#030303" transform="translate(696,1015)"/>
<path d="M0 0 C20.46 0 40.92 0 62 0 C64 16 64 16 64 21 C63.34 21 62.68 21 62 21 C61.62488281 20.19175781 61.24976563 19.38351562 60.86328125 18.55078125 C56.67152224 9.27015543 56.67152224 9.27015543 49 3 C45.5 2.75 45.5 2.75 42 3 C39.4790373 5.5209627 39.74335102 6.37243223 39.7253418 9.86108398 C39.71580978 10.8723082 39.70627777 11.88353241 39.69645691 12.92539978 C39.69782402 14.5691433 39.69782402 14.5691433 39.69921875 16.24609375 C39.69279106 17.92917381 39.69279106 17.92917381 39.68623352 19.64625549 C39.68048235 22.02270838 39.67999572 24.39917887 39.68432617 26.77563477 C39.68748404 30.41908713 39.66404306 34.06172637 39.63867188 37.70507812 C39.63639883 40.01041564 39.63569541 42.31575534 39.63671875 44.62109375 C39.627509 45.71489853 39.61829926 46.80870331 39.60881042 47.93565369 C39.61815361 49.45721825 39.61815361 49.45721825 39.62768555 51.00952148 C39.62705612 51.90283676 39.6264267 52.79615204 39.6257782 53.71653748 C40.07959333 56.48567023 40.75861698 57.35359821 43 59 C46.10839021 59.7269226 46.10839021 59.7269226 49 60 C49 60.66 49 61.32 49 62 C37.12 62 25.24 62 13 62 C13 61.34 13 60.68 13 60 C15.64 59.67 18.28 59.34 21 59 C21 40.85 21 22.7 21 4 C17.85088521 2.42544261 15.47991184 2.65200882 12 3 C5.27608113 7.03435132 2.41965353 13.7410394 0 21 C-0.66 21 -1.32 21 -2 21 C-2.0555941 19.37541685 -2.09348587 17.75022859 -2.125 16.125 C-2.14820313 15.22007813 -2.17140625 14.31515625 -2.1953125 13.3828125 C-1.9347442 8.86976961 -0.88655452 4.43277261 0 0 Z " fill="#050505" transform="translate(954,1015)"/>
<path d="M0 0 C4.25231129 1.4803268 6.34740013 4.88808584 8.2890625 8.796875 C12.95027678 21.16270807 12.22637124 39.19537189 7.4765625 51.44921875 C5.77883589 54.80557957 4.5539356 56.83795114 1.2890625 58.796875 C-1.8968286 59.52806312 -4.53498157 59.60530015 -7.7109375 58.796875 C-13.64365571 53.50901746 -16.36889099 46.14679341 -16.87207031 38.27661133 C-16.9178925 35.38741604 -16.9461856 32.49890273 -16.9609375 29.609375 C-16.9815625 28.61873047 -17.0021875 27.62808594 -17.0234375 26.60742188 C-17.07169269 17.40877538 -15.5542333 9.10099475 -9.7109375 1.796875 C-6.01981249 -0.663875 -4.27119534 -0.58433291 0 0 Z " fill="#FBFBFB" transform="translate(783.7109375,1169.203125)"/>
<path d="M0 0 C4.25231129 1.4803268 6.34740013 4.88808584 8.2890625 8.796875 C12.95027678 21.16270807 12.22637124 39.19537189 7.4765625 51.44921875 C5.77883589 54.80557957 4.5539356 56.83795114 1.2890625 58.796875 C-1.8968286 59.52806312 -4.53498157 59.60530015 -7.7109375 58.796875 C-13.64365571 53.50901746 -16.36889099 46.14679341 -16.87207031 38.27661133 C-16.9178925 35.38741604 -16.9461856 32.49890273 -16.9609375 29.609375 C-16.9815625 28.61873047 -17.0021875 27.62808594 -17.0234375 26.60742188 C-17.07169269 17.40877538 -15.5542333 9.10099475 -9.7109375 1.796875 C-6.01981249 -0.663875 -4.27119534 -0.58433291 0 0 Z " fill="#FBFBFB" transform="translate(664.7109375,1016.203125)"/>
<path d="M0 0 C2.37962363 0.87590402 4.33172681 1.05520711 6.8359375 0.67578125 C7.4959375 0.01578125 8.1559375 -0.64421875 8.8359375 -1.32421875 C9.8259375 -1.32421875 10.8159375 -1.32421875 11.8359375 -1.32421875 C11.8359375 5.60578125 11.8359375 12.53578125 11.8359375 19.67578125 C10.8459375 19.67578125 9.8559375 19.67578125 8.8359375 19.67578125 C8.48402344 18.87914062 8.13210938 18.0825 7.76953125 17.26171875 C4.75881211 10.80007088 2.04326931 5.4783356 -4.1640625 1.67578125 C-8.7228406 0.15618855 -12.46166485 -0.15562225 -16.8515625 1.98828125 C-23.47020554 9.68021776 -23.79503737 19.47272659 -23.6640625 29.17578125 C-23.67953125 30.32175781 -23.695 31.46773437 -23.7109375 32.6484375 C-23.67180587 41.24761313 -22.50595989 49.44926396 -17.0390625 56.36328125 C-11.37647495 58.94837557 -6.16271818 58.40862167 -0.4140625 56.30078125 C5.23028651 52.59125637 7.94109777 45.5470055 10.8359375 39.67578125 C11.4959375 39.67578125 12.1559375 39.67578125 12.8359375 39.67578125 C12.95153035 49.88097887 12.95153035 49.88097887 10.59765625 53.66796875 C4.60779608 59.18607383 -3.70112325 61.85219907 -11.7265625 62.11328125 C-20.98162372 61.67883314 -27.51987811 59.34008844 -34.25390625 52.85546875 C-37.01445373 49.70539616 -38.71696261 46.58534945 -40.1640625 42.67578125 C-40.5765625 41.64453125 -40.9890625 40.61328125 -41.4140625 39.55078125 C-43.71804327 27.64688062 -42.23615181 17.86336756 -35.84765625 7.55078125 C-27.20845187 -3.86970546 -12.63882784 -4.95686371 0 0 Z " fill="#070707" transform="translate(809.1640625,1016.32421875)"/>
<path d="M0 0 C4.17281834 1.26325555 8.00718772 -0.06359382 12 -1.39453125 C12 5.53546875 12 12.46546875 12 19.60546875 C11.34 19.60546875 10.68 19.60546875 10 19.60546875 C9.56429687 18.72503906 9.12859375 17.84460937 8.6796875 16.9375 C3.57093197 6.53619877 3.57093197 6.53619877 -6 0.60546875 C-9.78703453 0.2548174 -12.24566028 0.23707028 -15.6875 1.91796875 C-22.35330194 9.66471155 -22.6063878 19.4676643 -22.4375 29.23046875 C-22.44458984 30.39320312 -22.45167969 31.5559375 -22.45898438 32.75390625 C-22.39259616 41.78270344 -21.52729043 49.86762057 -15 56.60546875 C-11.28085501 58.46504124 -7.05907472 58.03768504 -3 57.60546875 C4.79148934 54.00939675 9.08989027 46.36576136 12 38.60546875 C12.66 38.60546875 13.32 38.60546875 14 38.60546875 C13.91213297 40.33554026 13.80394326 42.0645854 13.6875 43.79296875 C13.60048828 45.23736328 13.60048828 45.23736328 13.51171875 46.7109375 C12.92125341 50.05089793 12.0648148 51.91672078 10 54.60546875 C7.44140625 56.37109375 7.44140625 56.37109375 4.5625 57.85546875 C3.61503906 58.355625 2.66757812 58.85578125 1.69140625 59.37109375 C-5.28147788 62.56910737 -13.45518212 62.74632344 -20.86328125 60.88671875 C-30.53494105 57.24700459 -34.39471514 52.61594354 -38.80078125 43.4453125 C-42.3398169 35.06459942 -42.57060627 23.70142697 -39.4375 15.10546875 C-35.76168673 7.48488026 -30.56386441 1.94322197 -22.80859375 -1.55078125 C-14.97141555 -3.90520474 -7.48748166 -2.9316794 0 0 Z " fill="#080808" transform="translate(612,1016.39453125)"/>
<path d="M0 0 C11.22 0 22.44 0 34 0 C34 0.33 34 0.66 34 1 C31.36 1 28.72 1 26 1 C26.11828208 5.64494858 26.24253274 10.28968465 26.37231445 14.93432617 C26.41562305 16.51436015 26.45730106 18.09443969 26.49731445 19.67456055 C26.55511583 21.94594048 26.6187816 24.21709189 26.68359375 26.48828125 C26.70030624 27.19463211 26.71701874 27.90098297 26.73423767 28.6287384 C26.8259747 31.6664824 27.03207686 34.09623058 28 37 C30.31 37.33 32.62 37.66 35 38 C35 38.33 35 38.66 35 39 C32.03 39 29.06 39 26 39 C26.11386459 41.77170395 26.24060778 44.54178046 26.375 47.3125 C26.4059375 48.09818359 26.436875 48.88386719 26.46875 49.69335938 C26.50742187 50.45068359 26.54609375 51.20800781 26.5859375 51.98828125 C26.63306885 53.03302612 26.63306885 53.03302612 26.68115234 54.09887695 C26.92118253 56.32532739 26.92118253 56.32532739 29 59 C32.56769552 59.73606499 32.56769552 59.73606499 36 60 C36 60.66 36 61.32 36 62 C24.12 62 12.24 62 0 62 C0 61.34 0 60.68 0 60 C2.64 59.67 5.28 59.34 8 59 C8 40.85 8 22.7 8 4 C5.36 3.34 2.72 2.68 0 2 C0 1.34 0 0.68 0 0 Z " fill="#060606" transform="translate(887,1015)"/>
<path d="M0 0 C1.60369439 -0.06092835 3.20805585 -0.10447336 4.8125 -0.140625 C5.70582031 -0.16672852 6.59914063 -0.19283203 7.51953125 -0.21972656 C10 0 10 0 13 2.25 C16.71689323 7.36072819 17.33961109 11.06353928 17.3125 17.375 C17.32861328 18.1175 17.34472656 18.86 17.36132812 19.625 C17.36668811 25.69250626 16.02486558 29.86264189 11.75 34.375 C8.30528702 36.41051221 5.93469324 36.30860339 2 36 C-0.39954544 32.26368357 -0.22993687 28.97204502 -0.1953125 24.609375 C-0.1924826 23.90476135 -0.18965271 23.20014771 -0.18673706 22.47418213 C-0.17557801 20.2326124 -0.15048193 17.99144814 -0.125 15.75 C-0.11496464 14.22656829 -0.10583976 12.70313029 -0.09765625 11.1796875 C-0.07565291 7.45299414 -0.04115272 3.72653667 0 0 Z " fill="#F8F8F8" transform="translate(913,1017)"/>
<path d="M0 0 C8.76359814 -0.31298565 15.68562147 0.98032846 23 6 C26.25117214 9.67067823 26.46547975 13.12785699 26.28515625 17.85546875 C25.73674838 21.97979641 23.77089913 24.18091968 21 27.125 C14.28960955 31.31899403 6.79437047 32.44119078 -1 32 C-0.236875 31.278125 0.52625 30.55625 1.3125 29.8125 C6.16381869 24.73553858 8.37668074 20.17526016 8.28515625 13.0625 C7.68461833 8.71888328 5.10423713 5.8588511 1.75 3.25 C1.1725 2.8375 0.595 2.425 0 2 C0 1.34 0 0.68 0 0 Z " fill="#050505" transform="translate(849,1168)"/>
<path d="M0 0 C1.42784678 -0.06112067 2.85645701 -0.10456047 4.28515625 -0.140625 C5.08058838 -0.16672852 5.87602051 -0.19283203 6.69555664 -0.21972656 C10.70322776 0.16240121 12.29892533 2.10128572 15 5 C17.69478613 8.55221808 17.51225122 12.71789997 17 17 C15.38579838 22.09747879 13.714611 25.32124375 9 28 C5.3125 28.375 5.3125 28.375 2 28 C0 26 0 26 -0.22705078 23.38623047 C-0.21657715 22.30744629 -0.20610352 21.22866211 -0.1953125 20.1171875 C-0.18886719 18.95058594 -0.18242188 17.78398438 -0.17578125 16.58203125 C-0.15902344 15.35871094 -0.14226563 14.13539062 -0.125 12.875 C-0.11597656 11.64394531 -0.10695313 10.41289063 -0.09765625 9.14453125 C-0.07402548 6.09616185 -0.04108054 3.04817618 0 0 Z " fill="#FBFBFB" transform="translate(841,1170)"/>
<path d="M0 0 C6.93 0 13.86 0 21 0 C21 0.66 21 1.32 21 2 C19.56900563 2.91992495 18.13762902 3.83926064 16.7043457 4.75561523 C10.86169368 9.02147934 7.29754275 15.50269103 3.9375 21.75 C3.29288818 22.92828369 3.29288818 22.92828369 2.63525391 24.13037109 C-0.5268807 29.96898823 -3.43538571 35.87192165 -6 42 C-6.66 41.67 -7.32 41.34 -8 41 C-5.62125879 33.30261931 -2.47784468 26.05244551 0.859375 18.72851562 C3.22048093 13.38475436 4.60483254 8.83893983 5 3 C3.35 2.67 1.7 2.34 0 2 C0 1.34 0 0.68 0 0 Z " fill="#0C0C0C" transform="translate(731,1168)"/>
<path d="M0 0 C7.26 0 14.52 0 22 0 C22 0.66 22 1.32 22 2 C20.1746875 2.6496875 20.1746875 2.6496875 18.3125 3.3125 C8.9070861 7.48773113 0.96429036 15.41932471 -5.5 23.2734375 C-7.75082873 25.86423515 -10.2990391 27.89193296 -13 30 C-13 25.83952395 -11.29333708 24.89548326 -8.4375 21.9375 C0.17957374 13.55982887 0.17957374 13.55982887 4 3 C2.68 2.67 1.36 2.34 0 2 C0 1.34 0 0.68 0 0 Z " fill="#090909" transform="translate(929,1168)"/>
<path d="M0 0 C0.99 0 1.98 0 3 0 C3 6.93 3 13.86 3 21 C2.01 21 1.02 21 0 21 C-0.35191406 20.20335937 -0.70382812 19.40671875 -1.06640625 18.5859375 C-4.2154308 11.82745662 -6.93034471 7.37015181 -13 3 C-12.67 2.34 -12.34 1.68 -12 1 C-10.95199219 1.14308594 -10.95199219 1.14308594 -9.8828125 1.2890625 C-8.97273437 1.39992188 -8.06265625 1.51078125 -7.125 1.625 C-5.76761719 1.79902344 -5.76761719 1.79902344 -4.3828125 1.9765625 C-3.59648438 1.98429688 -2.81015625 1.99203125 -2 2 C-1.34 1.34 -0.68 0.68 0 0 Z " fill="#121212" transform="translate(818,1015)"/>
<path d="M0 0 C5.61 0 11.22 0 17 0 C17 0.66 17 1.32 17 2 C15.453125 2.2784375 15.453125 2.2784375 13.875 2.5625 C9.09347842 3.96314774 6.60605292 6.86185833 4 11 C2.46244137 14.27028724 1.16916123 17.58192277 0 21 C-0.66 21 -1.32 21 -2 21 C-2.25102323 13.66454325 -1.65900785 7.15447136 0 0 Z " fill="#0B0B0B" transform="translate(954,1015)"/>
<path d="M0 0 C0.66 0 1.32 0 2 0 C2.11731526 10.3572617 2.11731526 10.3572617 -0.37890625 14.02734375 C-2.16973016 15.60182651 -3.9326051 16.81508028 -6 18 C-7.093125 18.639375 -8.18625 19.27875 -9.3125 19.9375 C-14.12748054 21.32486728 -18.11318939 20.81610721 -23 20 C-23 19.67 -23 19.34 -23 19 C-22.33613281 18.89042969 -21.67226563 18.78085938 -20.98828125 18.66796875 C-20.10527344 18.50941406 -19.22226562 18.35085938 -18.3125 18.1875 C-17.44238281 18.03667969 -16.57226562 17.88585938 -15.67578125 17.73046875 C-11.53547668 16.60019582 -8.84201166 15.13852141 -6.26953125 11.66015625 C-5.78871094 10.80292969 -5.30789063 9.94570312 -4.8125 9.0625 C-4.32394531 8.20785156 -3.83539062 7.35320312 -3.33203125 6.47265625 C-2.17941121 4.33304192 -1.06851455 2.18260554 0 0 Z " fill="#1C1C1C" transform="translate(820,1056)"/>
<path d="M0 0 C0.66 0 1.32 0 2 0 C1.91213297 1.73007151 1.80394326 3.45911665 1.6875 5.1875 C1.62949219 6.15042969 1.57148437 7.11335938 1.51171875 8.10546875 C0.72661781 12.54638324 -0.80958857 15.08279775 -4.3828125 17.8359375 C-10.88608373 21.48592164 -14.6760186 22.68091376 -22 21 C-22 20.67 -22 20.34 -22 20 C-21.43152344 19.92523437 -20.86304688 19.85046875 -20.27734375 19.7734375 C-14.11465704 18.72403175 -9.942818 16.95668549 -6 12 C-3.75298889 8.10252941 -1.81718899 4.11363661 0 0 Z " fill="#1B1B1B" transform="translate(624,1055)"/>
<path d="M0 0 C6.93 0 13.86 0 21 0 C21 0.66 21 1.32 21 2 C19.906875 2.061875 18.81375 2.12375 17.6875 2.1875 C13.96689266 2.61050011 13.96689266 2.61050011 12.30151367 5.05541992 C10.6855723 8.71136982 10.52324437 11.9977062 10.48828125 15.92578125 C10.47033005 16.67337204 10.45237885 17.42096283 10.43388367 18.19120789 C10.37996151 20.56491558 10.34594446 22.93842432 10.3125 25.3125 C10.27931079 26.92776195 10.24481965 28.54299771 10.20898438 30.15820312 C10.12424601 34.10532476 10.05734951 38.05238927 10 42 C9.34 41.67 8.68 41.34 8 41 C8 28.79 8 16.58 8 4 C5.36 3.34 2.72 2.68 0 2 C0 1.34 0 0.68 0 0 Z " fill="#181818" transform="translate(744,1015)"/>
<path d="M0 0 C1.2051933 3.61557991 0.74896968 4.14251394 -0.87109375 7.44921875 C-1.48500977 8.72055664 -1.48500977 8.72055664 -2.11132812 10.01757812 C-2.54896484 10.89865234 -2.98660156 11.77972656 -3.4375 12.6875 C-3.87126953 13.58017578 -4.30503906 14.47285156 -4.75195312 15.39257812 C-5.82591129 17.59950314 -6.908839 19.80154313 -8 22 C-8.99 22 -9.98 22 -11 22 C-9.50888944 17.20607956 -7.6169426 12.72696897 -5.5 8.1875 C-5.19191406 7.50751953 -4.88382813 6.82753906 -4.56640625 6.12695312 C-2.24018872 1.12009436 -2.24018872 1.12009436 0 0 Z " fill="#1A1A1A" transform="translate(689,1186)"/>
<path d="M0 0 C0 4.91075921 -3.69530187 7.60955122 -7 11 C-8.94602014 12.76450416 -10.92714711 14.3821636 -13 16 C-13 11.90207912 -10.85453029 10.26032343 -8.1875 7.4375 C-7.29417969 6.46683594 -6.40085937 5.49617188 -5.48046875 4.49609375 C-3 2 -3 2 0 0 Z " fill="#151515" transform="translate(929,1182)"/>
<path d="M0 0 C4.95 0 9.9 0 15 0 C14.01 0.495 14.01 0.495 13 1 C13 1.66 13 2.32 13 3 C10.03 3 7.06 3 4 3 C4 2.34 4 1.68 4 1 C2.68 0.67 1.36 0.34 0 0 Z " fill="#212121" transform="translate(772,1167)"/>
<path d="M0 0 C4.95 0 9.9 0 15 0 C14.01 0.495 14.01 0.495 13 1 C13 1.66 13 2.32 13 3 C10.03 3 7.06 3 4 3 C4 2.34 4 1.68 4 1 C2.68 0.67 1.36 0.34 0 0 Z " fill="#212121" transform="translate(653,1014)"/>
<path d="M0 0 C0.33 0 0.66 0 1 0 C1.34833144 4.87664009 0.41685712 7.77050005 -2 12 C-2.66 11.67 -3.32 11.34 -4 11 C-3.52269162 9.5410574 -3.04308958 8.08286504 -2.5625 6.625 C-2.29566406 5.81289062 -2.02882813 5.00078125 -1.75390625 4.1640625 C-1 2 -1 2 0 0 Z " fill="#222222" transform="translate(727,1198)"/>
<path d="M0 0 C-0.33 0.66 -0.66 1.32 -1 2 C-4.63 1.67 -8.26 1.34 -12 1 C-12 0.67 -12 0.34 -12 0 C-3.42857143 -1.28571429 -3.42857143 -1.28571429 0 0 Z " fill="#ADADAD" transform="translate(860,1200)"/>
</svg>
